<?xml version="1.0" encoding="UTF-8"?>
<svg width="23px" height="17px" viewBox="0 0 23 17" version="1.1" xmlns="http://www.w3.org/2000/svg" xmlns:xlink="http://www.w3.org/1999/xlink">
    <!-- Generator: Sketch 48.2 (47327) - http://www.bohemiancoding.com/sketch -->
    <title>code-snippet</title>
    <desc>Created with Sketch.</desc>
    <defs></defs>
    <g id="Artboard" stroke="none" stroke-width="1" fill="none" fill-rule="evenodd" transform="translate(-116.000000, -153.000000)">
        <path d="M122.224473,165.487855 C122.569483,165.919117 122.499561,166.548409 122.068299,166.893419 C121.637037,167.238429 121.007745,167.168507 120.662736,166.737245 L116.159785,161.108557 L120.666637,155.546281 C121.014322,155.117174 121.644037,155.051168 122.073145,155.398854 C122.502252,155.746539 122.568258,156.376255 122.220572,156.805362 L118.727424,161.116543 L122.224473,165.487855 Z M132.378953,165.487855 L135.876002,161.116543 L132.382854,156.805362 C132.035169,156.376255 132.101174,155.746539 132.530281,155.398854 C132.959389,155.051168 133.589104,155.117174 133.936789,155.546281 L138.443641,161.108557 L133.940691,166.737245 C133.595681,167.168507 132.966389,167.238429 132.535127,166.893419 C132.103865,166.548409 132.033943,165.919117 132.378953,165.487855 Z M130.405128,154.387271 L126.405128,168.387271 C126.253404,168.918306 125.699918,169.225798 125.168883,169.074074 C124.637848,168.92235 124.330356,168.368864 124.48208,167.837829 L128.48208,153.837829 C128.633805,153.306794 129.18729,152.999302 129.718326,153.151026 C130.249361,153.302751 130.556853,153.856236 130.405128,154.387271 Z" id="code-snippet" fill="#FFFFFF" fill-rule="nonzero"></path>
    </g>
</svg>
